<?xml version="1.0" standalone="no"?><svg xmlns="http://www.w3.org/2000/svg" viewBox="0 0 1440 320"><path fill="#5000ca" fill-opacity="1" d="M0,256L14.1,234.7C28.2,213,56,171,85,133.3C112.9,96,141,64,169,74.7C197.6,85,226,139,254,170.7C282.4,203,311,213,339,213.3C367.1,213,395,203,424,181.3C451.8,160,480,128,508,149.3C536.5,171,565,245,593,256C621.2,267,649,213,678,197.3C705.9,181,734,203,762,192C790.6,181,819,139,847,106.7C875.3,75,904,53,932,58.7C960,64,988,96,1016,133.3C1044.7,171,1073,213,1101,218.7C1129.4,224,1158,192,1186,154.7C1214.1,117,1242,75,1271,80C1298.8,85,1327,139,1355,170.7C1383.5,203,1412,213,1426,218.7L1440,224L1440,320L1425.9,320C1411.8,320,1384,320,1355,320C1327.1,320,1299,320,1271,320C1242.4,320,1214,320,1186,320C1157.6,320,1129,320,1101,320C1072.9,320,1045,320,1016,320C988.2,320,960,320,932,320C903.5,320,875,320,847,320C818.8,320,791,320,762,320C734.1,320,706,320,678,320C649.4,320,621,320,593,320C564.7,320,536,320,508,320C480,320,452,320,424,320C395.3,320,367,320,339,320C310.6,320,282,320,254,320C225.9,320,198,320,169,320C141.2,320,113,320,85,320C56.5,320,28,320,14,320L0,320Z"></path></svg>